<svg xmlns="http://www.w3.org/2000/svg" viewBox="0 0 251.05 29.54"><g id="Layer_2" data-name="Layer 2"><g id="Layer_1-2" data-name="Layer 1"><rect x="115.61" y="20.25" width="7.43" height="0.68"/><path d="M0,29.54H1.18v-3H6.24v3H7.43V22.19H0Zm1.18-6.16H6.24v1.94H1.18Z"/><path d="M13.59,29.54h1.18v-3H17l2.45,3h1.52l-2.53-3h2.53V22.19H13.59Zm1.18-6.16h5v1.94h-5Z"/><polygon points="27.09 29.54 34.52 29.54 34.52 28.35 28.27 28.35 28.27 23.38 34.52 23.38 34.52 22.19 27.09 22.19 27.09 29.54"/><polygon points="46.84 25.32 41.77 25.32 41.77 22.19 40.67 22.19 40.67 29.54 41.77 29.54 41.77 26.5 46.84 26.5 46.84 29.54 48.02 29.54 48.02 22.19 46.84 22.19 46.84 25.32"/><rect x="54.18" y="22.19" width="1.18" height="7.34"/><polygon points="61.52 23.38 64.73 23.38 64.73 29.54 65.91 29.54 65.91 23.38 68.86 23.38 68.86 22.19 61.52 22.19 61.52 23.38"/><polygon points="76.2 22.19 75.02 22.19 75.02 29.54 76.2 29.54 81.27 29.54 82.45 29.54 82.45 28.35 76.2 28.35 76.2 26.5 82.45 26.5 82.45 25.32 76.2 25.32 76.2 23.38 82.45 23.38 82.45 22.19 81.27 22.19 76.2 22.19"/><polygon points="94.43 22.19 89.79 27.76 89.79 22.19 88.61 22.19 88.61 29.54 89.79 29.54 92.07 26.75 94.43 29.54 95.95 29.54 92.83 25.91 95.95 22.19 94.43 22.19"/><polygon points="102.11 23.38 105.32 23.38 105.32 29.54 106.5 29.54 106.5 23.38 109.45 23.38 109.45 22.19 102.11 22.19 102.11 23.38"/><polygon points="121.86 28.35 116.79 28.35 116.79 22.19 115.61 22.19 115.61 29.54 116.79 29.54 121.86 29.54 123.04 29.54 123.04 22.19 121.86 22.19 121.86 28.35"/><path d="M129.2,29.54h1.18v-3h2.19l2.45,3h1.52l-2.53-3h2.53V22.19H129.2Zm1.18-6.16h5v1.94h-5Z"/><path d="M142.7,29.54h1.18v-3h5.06v3h1.19V22.19H142.7Zm1.18-6.16h5.06v1.94h-5.06Z"/><rect x="165.49" y="25.23" width="1.27" height="1.27"/><path d="M182.19,29.54h7.35V22.19h-7.35Zm1.19-6.16h5v5h-5Z"/><polygon points="196.88 22.19 195.7 22.19 195.7 29.54 196.88 29.54 201.94 29.54 203.12 29.54 203.12 28.35 196.88 28.35 196.88 26.5 203.12 26.5 203.12 25.32 196.88 25.32 196.88 23.38 203.12 23.38 203.12 22.19 201.94 22.19 196.88 22.19"/><polygon points="209.28 22.19 209.28 26.5 215.44 26.5 215.44 28.35 209.28 28.35 209.28 29.54 215.44 29.54 216.62 29.54 216.62 25.32 210.46 25.32 210.46 23.38 215.44 23.38 216.62 23.38 216.62 22.19 215.44 22.19 209.28 22.19"/><rect x="222.78" y="22.19" width="1.18" height="7.34"/><polygon points="230.13 29.54 237.47 29.54 237.47 25.32 232.49 25.32 232.49 26.5 236.29 26.5 236.29 28.35 231.31 28.35 231.31 23.38 237.47 23.38 237.47 22.19 230.13 22.19 230.13 29.54"/><polygon points="249.87 27.85 244.81 22.19 243.63 22.19 243.63 29.54 244.81 29.54 244.81 23.97 249.87 29.54 251.06 29.54 251.06 22.19 249.87 22.19 249.87 27.85"/><polygon points="251.06 2.36 251.06 0 248.69 0 236.29 0 236.29 14.77 238.65 14.77 251.06 14.77 251.06 12.4 238.65 12.4 238.65 8.61 251.06 8.61 251.06 6.25 238.65 6.25 238.65 2.36 251.06 2.36"/><polygon points="214.18 14.77 228.86 14.77 228.86 12.4 216.54 12.4 216.54 2.36 228.86 2.36 228.86 0 214.18 0 214.18 14.77"/><path d="M192,14.77h2.37V8.61h10v6.16h2.36V0H192Zm2.37-12.41h10V6.24h-10Z"/><path d="M184.64,0H169.87V14.77h2.37V8.61h12.4Zm-2.36,6.24h-10V2.36h10Z"/><polygon points="147.68 0 147.68 8.61 160.08 8.61 160.08 12.4 150.04 12.4 147.68 12.4 147.68 14.77 160.08 14.77 162.45 14.77 162.45 6.25 150.04 6.25 150.04 2.36 160.08 2.36 162.45 2.36 162.45 0 160.08 0 147.68 0"/><polygon points="121.86 6.16 109.62 6.16 109.62 2.53 121.86 2.53 121.86 0 107.09 0 107.09 14.77 109.62 14.77 109.62 8.69 121.86 8.69 121.86 6.16"/><path d="M85,14.77H99.66V0H85ZM87.34,2.36h10V12.41h-10Z"/><polygon points="44.3 2.36 50.72 2.36 50.72 14.77 53.08 14.77 53.08 2.36 59.07 2.36 59.07 0 44.3 0 44.3 2.36"/><path d="M22.19,14.77h2.37V8.61h4.3l5.06,6.16h3L31.9,8.61H37V0H22.19ZM24.56,2.36h10V6.24h-10Z"/><path d="M14.77,14.77V0H0V14.77H2.36V8.61h10v6.16ZM2.36,6.24V2.36h10V6.24Z"/></g></g></svg>