<svg xmlns="http://www.w3.org/2000/svg" viewBox="0 0 23.65 19.47"><defs><style>.cls-1{isolation:isolate;}.cls-2{mix-blend-mode:darken;}</style></defs><g class="cls-1"><g id="Layer_2" data-name="Layer 2"><g id="uvodna_stranka" data-name="uvodna stranka"><g class="cls-2"><polyline points="23.65 18.77 0 18.77 0 19.46 23.65 19.46 23.65 18.77"/></g><g class="cls-2"><polyline points="23.65 16.68 0 16.68 0 17.38 23.65 17.38 23.65 16.68"/></g><g class="cls-2"><polyline points="23.65 14.6 0 14.6 0 15.29 23.65 15.29 23.65 14.6"/></g><g class="cls-2"><polyline points="23.65 12.52 0 12.52 0 13.21 23.65 13.21 23.65 12.52"/></g><g class="cls-2"><polyline points="23.65 10.43 0 10.43 0 11.13 23.65 11.13 23.65 10.43"/></g><g class="cls-2"><polyline points="23.65 8.35 0 8.35 0 9.04 23.65 9.04 23.65 8.35"/></g><g class="cls-2"><polyline points="23.65 6.25 0 6.25 0 6.96 23.65 6.96 23.65 6.25"/></g><g class="cls-2"><polyline points="23.65 4.17 0 4.17 0 4.86 23.65 4.86 23.65 4.17"/></g><g class="cls-2"><polyline points="23.65 2.08 0 2.08 0 2.78 23.65 2.78 23.65 2.08"/></g><g class="cls-2"><polyline points="23.65 0 0 0 0 0.69 23.65 0.69 23.65 0"/></g></g></g></g></svg>